<svg width="24" height="24" viewBox="0 0 24 24" fill="none" xmlns="http://www.w3.org/2000/svg">
<g clip-path="url(#clip0_452_2263)">
<path d="M12 0C5.37241 0 0 5.37241 0 12C0 18.6276 5.37241 24 12 24C12.1703 24 12.339 23.9957 12.5075 23.9887V15.2293H10.6974V12.2105H12.5075V10.3985C12.5075 7.93563 13.5275 6.46992 16.4286 6.46992H18.844V9.4906H17.3346C16.2051 9.4906 16.1297 9.91176 16.1297 10.6992L16.1259 12.2105H18.8609L18.5414 15.2293H16.1259V23.2726C20.7209 21.5901 24 17.1778 24 12C24 5.37241 18.6276 0 12 0Z" fill="#3B5998"/>
<path d="M16.429 6.47089C13.5279 6.47089 12.5079 7.93659 12.5079 10.3995V12.2115H10.6978V15.2303H12.5079V23.9897C13.7744 23.9369 14.9908 23.6893 16.1263 23.2735V15.2303H18.5417L18.8613 12.2115H16.1263L16.1301 10.7002C16.1301 9.91272 16.2055 9.49156 17.335 9.49156H18.8444V6.47089H16.429Z" fill="white"/>
</g>
<defs>
<clipPath id="clip0_452_2263">
<rect width="24" height="24" fill="white"/>
</clipPath>
</defs>
</svg>
