<svg width="184" height="40" viewBox="0 0 184 40" fill="none" xmlns="http://www.w3.org/2000/svg">
<g clip-path="url(#clip0_452_2452)">
<path d="M62.0746 13.4103C58.3137 11.0519 54.7616 8.82177 54.7616 5.76767C54.7616 3.41667 56.8709 1.71384 59.7822 1.71384C63.6602 1.71384 66.0918 4.61414 66.2859 9.47361L66.3115 10.1401L70.9586 5.1671L70.7791 4.97668C68.3293 2.373 64.2388 0.754395 60.1007 0.754395C54.5455 0.754395 50.51 3.8085 50.51 8.01614C50.51 12.2238 54.8165 14.8421 58.9838 17.3139C63.0889 19.7528 66.967 22.0526 66.967 25.7951C66.967 28.6771 64.6746 30.6143 61.2653 30.6143C57.0833 30.6143 54.3917 27.6408 54.2379 22.8582L54.2159 22.1807L49.5652 27.205L49.7446 27.3954C52.2641 30.0394 56.479 31.6177 61.0236 31.6177C67.238 31.6177 71.2552 28.6552 71.2552 24.074C71.2552 19.1742 66.5861 16.2446 62.0709 13.4139L62.0746 13.4103Z" fill="#335F54"/>
<path d="M94.0914 20.3388C94.0914 13.641 89.7556 9.14404 83.2958 9.14404C76.836 9.14404 72.5039 13.6117 72.5039 20.2582C72.5039 26.9047 76.9606 31.6141 83.3361 31.6141C89.7116 31.6141 94.0914 26.978 94.0914 20.3388ZM77.2755 20.4193C77.2755 14.2708 79.6961 10.1438 83.2995 10.1438C86.9029 10.1438 89.3235 14.2232 89.3235 20.2985C89.3235 26.3737 86.8699 30.6143 83.2189 30.6143C79.5679 30.6143 77.2755 26.5166 77.2755 20.4193Z" fill="#335F54"/>
<path d="M105.451 24.1141L99.9616 12.7509C99.0351 10.8576 96.999 9.58325 94.8971 9.58325H93.337L102.737 29.7242L102.291 30.6471C99.3317 36.7553 98.2221 39.0404 96.263 39.0404C94.0621 39.0404 93.0221 36.1803 92.3922 34.4482L92.2384 34.0271L89.6165 36.7479L89.8032 36.942C91.799 39.0257 93.7508 39.9961 95.9444 39.9961C98.8593 39.9961 99.6906 38.2494 102.444 32.4671C102.833 31.6504 103.261 30.7533 103.737 29.7682L113.646 9.57959H112.544L105.455 24.1104L105.451 24.1141Z" fill="#335F54"/>
<path d="M145.806 1.15723H122.867V2.15695H139.698L121.395 31.171H144.294V30.1749H127.503L145.806 1.15723Z" fill="#335F54"/>
<path d="M161.904 16.0284C161.04 11.7182 157.88 9.14014 153.445 9.14014C147.326 9.14014 143.052 13.7103 143.052 20.2543C143.052 26.7983 147.322 31.6102 153.203 31.6102C157.067 31.6102 159.989 29.4276 161.648 25.2932L161.787 24.9453L160.78 24.8538L160.696 25.0295C159.857 26.8056 158.154 28.9222 154.807 28.9222C151.929 28.9222 149.746 27.311 148.644 24.385L161.941 16.2151L161.904 16.0247V16.0284ZM153.203 10.1399C155.624 10.1399 157.074 12.879 157.294 17.8594L148.311 23.4402C147.989 22.2757 147.824 20.9794 147.824 19.5768C147.824 14.3731 150.237 10.1435 153.203 10.1435V10.1399Z" fill="#335F54"/>
<path d="M176.241 9.14404C173.044 9.14404 170.29 10.5979 168.895 12.9342V9.19165L168.375 9.71165C167.734 10.3891 166.694 10.8286 165.727 10.8286H163.109L163.457 11.5134C163.856 12.059 164.127 12.9122 164.127 13.6373V31.1746H165.248C167.397 31.1746 168.899 29.6732 168.899 27.5236V16.2959C169.012 13.3151 170.949 11.3888 173.839 11.3888C176.728 11.3888 178.336 13.392 178.336 16.8892V27.5236C178.336 29.6732 179.837 31.1746 181.987 31.1746H183.107V17.292C183.107 12.0407 180.672 9.14771 176.248 9.14771L176.241 9.14404Z" fill="#335F54"/>
<path d="M39.9413 20.251V20.0862C39.9339 19.3245 39.3077 18.7056 38.5314 18.7056C38.1579 18.7093 37.81 18.8558 37.55 19.1231C37.29 19.3904 37.1472 19.7383 37.1508 20.1118V20.3279C37.1655 20.6098 37.3339 26.1871 31.4528 28.582C34.8035 25.2569 34.8181 20.9065 34.7962 20.2473C34.7888 12.1946 28.8125 4.99143 23.7992 0.369987C23.5282 0.117309 23.184 -0.0145227 22.7995 0.000125262C22.4259 0.0147733 22.0817 0.172239 21.829 0.446889C21.5764 0.721539 21.4445 1.07675 21.4592 1.44661C21.4738 1.82014 21.6349 2.1607 21.9059 2.41338C28.4206 8.42272 32.0057 14.758 32.0057 20.2583V20.3389C32.024 20.6208 32.295 27.2381 24.6707 29.1423C24.5975 29.1606 24.5279 29.1899 24.4583 29.2192C23.7626 29.0617 23.1107 28.8677 22.5065 28.6296C26.0586 25.1581 26.0257 20.5366 26.022 20.251C26.022 16.578 24.4107 12.4912 21.104 7.74891C20.844 7.37539 20.4155 7.15201 19.9614 7.15201C19.5073 7.15201 19.0789 7.37539 18.8189 7.74891C15.5084 12.4912 13.9008 16.5853 13.9008 20.2583C13.9008 21.0273 14.527 21.6535 15.296 21.6535C16.065 21.6535 16.6912 21.0273 16.6912 20.2583C16.6912 17.6473 17.7935 14.5566 19.9651 11.0703C22.1403 14.5566 23.2389 17.6656 23.2426 20.3242C23.2572 20.6318 23.4659 27.3736 15.545 29.2009C7.64611 27.3845 7.90978 20.6318 7.92809 20.3462C7.92809 20.3169 7.92809 20.2876 7.92809 20.2583C7.92809 14.7653 11.5168 8.42638 18.0315 2.41338C18.3062 2.1607 18.4637 1.81648 18.4783 1.44661C18.493 1.07309 18.3611 0.717877 18.1084 0.446889C17.8558 0.175901 17.5152 0.0147733 17.1417 0.000125262C16.7645 -0.0108607 16.4129 0.117309 16.1383 0.369987C11.1287 4.99875 5.14863 12.2056 5.14131 20.24C5.123 20.9211 5.13398 25.2752 8.48471 28.593C3.72045 26.6778 2.89284 22.6972 2.78298 20.8039C2.73904 20.0459 2.07988 19.4563 1.31086 19.4929C0.545502 19.5369 -0.0440798 20.196 -0.00013584 20.9651C0.13902 23.36 1.44635 31.2553 12.3847 32.3319C12.4323 32.3356 12.4763 32.3392 12.5239 32.3392H12.5459L13.714 32.3173C13.758 32.3173 13.7983 32.3173 13.8386 32.3099C14.4428 32.244 15.0067 32.1525 15.5524 32.0463C15.5926 32.0463 15.6293 32.0573 15.6695 32.0573C15.9222 32.0573 16.1603 31.9877 16.3653 31.8668C17.7459 31.5299 18.9324 31.0649 19.9468 30.5082C21.6716 31.4457 23.7296 32.0536 26.0806 32.3063C26.1246 32.3099 26.1648 32.3136 26.2088 32.3136L27.3989 32.3356C27.4465 32.3356 27.4905 32.3356 27.5344 32.3282C40.0255 31.0978 39.9449 20.6831 39.9339 20.2437L39.9413 20.251Z" fill="#B7968A"/>
</g>
<defs>
<clipPath id="clip0_452_2452">
<rect width="183.1" height="40" fill="white"/>
</clipPath>
</defs>
</svg>
