<svg width="450" height="99" viewBox="0 0 450 99" fill="none" xmlns="http://www.w3.org/2000/svg">
<g clip-path="url(#clip0_452_2438)">
<path d="M152.559 32.958C143.316 27.162 134.586 21.681 134.586 14.175C134.586 8.39701 139.77 4.212 146.925 4.212C156.456 4.212 162.432 11.34 162.909 23.283L162.972 24.921L174.393 12.699L173.952 12.231C167.931 5.832 157.878 1.854 147.708 1.854C134.055 1.854 124.137 9.36 124.137 19.701C124.137 30.042 134.721 36.477 144.963 42.552C155.052 48.546 164.583 54.198 164.583 63.396C164.583 70.479 158.949 75.24 150.57 75.24C140.292 75.24 133.677 67.932 133.299 56.178L133.245 54.513L121.815 66.861L122.256 67.329C128.448 73.827 138.807 77.706 149.976 77.706C165.249 77.706 175.122 70.425 175.122 59.166C175.122 47.124 163.647 39.924 152.55 32.967L152.559 32.958Z" fill="white"/>
<path d="M231.246 49.9861C231.246 33.5251 220.59 22.4731 204.714 22.4731C188.838 22.4731 178.191 33.4531 178.191 49.7881C178.191 66.1231 189.144 77.6971 204.813 77.6971C220.482 77.6971 231.246 66.3031 231.246 49.9861ZM189.918 50.1841C189.918 35.0731 195.867 24.9301 204.723 24.9301C213.579 24.9301 219.528 34.9561 219.528 49.8871C219.528 64.8181 213.498 75.2401 204.525 75.2401C195.552 75.2401 189.918 65.1691 189.918 50.1841Z" fill="white"/>
<path d="M259.164 59.2649L245.673 31.3379C243.396 26.6849 238.392 23.5529 233.226 23.5529H229.392L252.495 73.0529L251.397 75.3209C244.125 90.3329 241.398 95.9489 236.583 95.9489C231.174 95.9489 228.618 88.9199 227.07 84.6629L226.692 83.6279L220.248 90.3149L220.707 90.7919C225.612 95.9129 230.409 98.2979 235.8 98.2979C242.964 98.2979 245.007 94.0049 251.775 79.7939C252.729 77.7869 253.782 75.5819 254.952 73.1609L279.306 23.5439H276.597L259.173 59.2559L259.164 59.2649Z" fill="white"/>
<path d="M358.344 2.84424H301.968V5.30124H343.332L298.35 76.6082H354.627V74.1602H313.362L358.344 2.84424Z" fill="white"/>
<path d="M397.908 39.3929C395.784 28.7999 388.017 22.4639 377.118 22.4639C362.079 22.4639 351.576 33.6959 351.576 49.7789C351.576 65.8619 362.07 77.6879 376.524 77.6879C386.019 77.6879 393.201 72.3239 397.278 62.1629L397.62 61.3079L395.145 61.0829L394.938 61.5149C392.877 65.8799 388.692 71.0819 380.466 71.0819C373.392 71.0819 368.028 67.1219 365.319 59.9309L397.998 39.8519L397.908 39.3839V39.3929ZM376.524 24.9209C382.473 24.9209 386.037 31.6529 386.577 43.8929L364.5 57.6089C363.708 54.7469 363.303 51.5609 363.303 48.1139C363.303 35.3249 369.234 24.9299 376.524 24.9299V24.9209Z" fill="white"/>
<path d="M433.143 22.4731C425.286 22.4731 418.518 26.0461 415.089 31.7881V22.5901L413.811 23.8681C412.236 25.5331 409.68 26.6131 407.304 26.6131H400.869L401.724 28.2961C402.705 29.6371 403.371 31.7341 403.371 33.5161V76.6171H406.125C411.408 76.6171 415.098 72.9271 415.098 67.6441V40.0501C415.377 32.7241 420.138 27.9901 427.239 27.9901C434.34 27.9901 438.291 32.9131 438.291 41.5081V67.6441C438.291 72.9271 441.981 76.6171 447.264 76.6171H450.018V42.4981C450.018 29.5921 444.033 22.4821 433.161 22.4821L433.143 22.4731Z" fill="white"/>
<path d="M98.1628 49.7698V49.3648C98.1448 47.4928 96.6058 45.9718 94.6978 45.9718C93.7798 45.9808 92.9248 46.3408 92.2858 46.9978C91.6468 47.6548 91.2958 48.5098 91.3048 49.4278V49.9588C91.3408 50.6518 91.7548 64.3588 77.3008 70.2448C85.5358 62.0728 85.5718 51.3808 85.5178 49.7608C85.4998 29.9698 70.8118 12.2668 58.4908 0.908778C57.8248 0.287778 56.9788 -0.0362218 56.0338 -0.00022176C55.1158 0.0357782 54.2698 0.422778 53.6488 1.09778C53.0278 1.77278 52.7038 2.64578 52.7398 3.55478C52.7758 4.47278 53.1718 5.30978 53.8378 5.93078C69.8488 20.6998 78.6598 36.2698 78.6598 49.7878V49.9858C78.7048 50.6788 79.3708 66.9418 60.6328 71.6218C60.4528 71.6668 60.2818 71.7388 60.1108 71.8108C58.4008 71.4238 56.7988 70.9468 55.3138 70.3618C64.0438 61.8298 63.9628 50.4718 63.9538 49.7698C63.9538 40.7428 59.9938 30.6988 51.8668 19.0438C51.2278 18.1258 50.1748 17.5768 49.0588 17.5768C47.9428 17.5768 46.8898 18.1258 46.2508 19.0438C38.1148 30.6988 34.1638 40.7608 34.1638 49.7878C34.1638 51.6778 35.7028 53.2168 37.5928 53.2168C39.4828 53.2168 41.0218 51.6778 41.0218 49.7878C41.0218 43.3708 43.7308 35.7748 49.0678 27.2068C54.4138 35.7748 57.1138 43.4158 57.1228 49.9498C57.1588 50.7058 57.6718 67.2748 38.2048 71.7658C18.7918 67.3018 19.4398 50.7058 19.4848 50.0038C19.4848 49.9318 19.4848 49.8598 19.4848 49.7878C19.4848 36.2878 28.3048 20.7088 44.3158 5.93078C44.9908 5.30978 45.3778 4.46378 45.4138 3.55478C45.4498 2.63678 45.1258 1.76378 44.5048 1.09778C43.8838 0.431778 43.0468 0.0357782 42.1288 -0.00022176C41.2018 -0.0272218 40.3378 0.287778 39.6628 0.908778C27.3508 12.2848 12.6538 29.9968 12.6358 49.7428C12.5908 51.4168 12.6178 62.1178 20.8528 70.2718C9.14381 65.5648 7.10981 55.7818 6.83981 51.1288C6.73181 49.2658 5.11181 47.8168 3.22181 47.9068C1.34081 48.0148 -0.108193 49.6348 -0.000193041 51.5248C0.341807 57.4108 3.5548 76.8148 30.4378 79.4608C30.5548 79.4698 30.6628 79.4788 30.7798 79.4788H30.8338L33.7048 79.4248C33.8128 79.4248 33.9118 79.4248 34.0108 79.4068C35.4958 79.2448 36.8818 79.0198 38.2228 78.7588C38.3218 78.7588 38.4118 78.7858 38.5108 78.7858C39.1318 78.7858 39.7168 78.6148 40.2208 78.3178C43.6138 77.4898 46.5298 76.3468 49.0228 74.9788C53.2618 77.2828 58.3198 78.7768 64.0978 79.3978C64.2058 79.4068 64.3048 79.4158 64.4128 79.4158L67.3378 79.4698C67.4548 79.4698 67.5628 79.4698 67.6708 79.4518C98.3698 76.4278 98.1718 50.8318 98.1448 49.7518L98.1628 49.7698Z" fill="white"/>
</g>
<defs>
<clipPath id="clip0_452_2438">
<rect width="450" height="98.307" fill="white"/>
</clipPath>
</defs>
</svg>
