<svg width="250" height="150" viewBox="0 0 250 150" fill="none" xmlns="http://www.w3.org/2000/svg">
<path d="M39.4468 120.632C39.4468 128.839 32.2224 134.255 20.7742 134.255C12.4206 134.255 4.58976 131.317 0 126.497L7.52763 118.363C7.83082 127.929 13.2465 133.418 21.2237 133.418C27.9254 133.418 32.442 129.508 32.442 123.852C32.442 109.1 1.57871 105.786 1.57871 90.5004C1.57871 83.2028 8.42676 77.4003 19.0491 77.4003C26.3467 77.4003 33.958 80.1081 38.6941 85.1579L31.1665 93.2083C30.7901 83.7256 25.8971 78.153 18.4427 78.153C12.567 78.153 8.5104 81.6136 8.5104 86.2871C8.5104 99.1572 39.4468 103.904 39.4468 120.611V120.632Z" fill="white"/>
<path d="M62.5526 93.1561C74.3772 93.1561 82.2812 101.29 82.2812 113.637C82.2812 125.985 74.2309 134.265 62.6362 134.265C51.0416 134.265 42.8344 125.755 42.8344 113.491C42.8344 101.227 50.7384 93.1665 62.5631 93.1665L62.5526 93.1561ZM62.4062 133.429C69.5575 133.429 74.3772 125.378 74.3772 113.554C74.3772 101.729 69.5575 93.982 62.5526 93.982C55.5477 93.982 50.728 101.959 50.728 113.784C50.728 125.608 55.3177 133.429 62.3958 133.429H62.4062Z" fill="white"/>
<path d="M104.111 121.918L117.734 93.9926H118.633L100.41 131.108C93.2587 145.86 92.1296 150 86.2538 150C82.1136 150 78.5798 148.045 75.1088 144.428L79.1026 140.287C80.3049 143.602 82.3437 149.247 86.8602 149.247C91.0736 149.247 93.1855 144.428 99.584 131.254L82.1973 93.9926H84.3092C88.073 93.9926 91.6905 96.2508 93.3423 99.6383L104.111 121.918Z" fill="white"/>
<path d="M144.531 132.603H176.45V133.429H134.975L169.299 78.9998H137.306V78.1739H178.865L144.541 132.603H144.531Z" fill="white"/>
<path d="M209.048 122.744C206.11 130.041 200.998 134.265 193.69 134.265C183.298 134.265 175.174 125.755 175.174 113.491C175.174 101.227 183.078 93.1666 194.15 93.1666C202.503 93.1666 208.003 98.1327 209.508 105.66L184.51 121.019C186.465 126.591 190.532 130.282 196.711 130.282C202.89 130.282 206.267 126.821 208.233 122.681L209.059 122.754L209.048 122.744ZM201.897 109.267C201.521 99.4814 198.656 93.9821 193.69 93.9821C187.814 93.9821 183.078 101.959 183.078 112.205C183.078 115.143 183.454 117.851 184.207 120.256L201.897 109.267Z" fill="white"/>
<path d="M214.684 133.439V101.071C214.684 99.6382 214.161 97.9131 213.325 96.784L213.095 96.3344H217.162C219.043 96.3344 221.155 95.5085 222.504 94.0761L222.577 94.003V102.064C224.606 96.5644 230.335 93.177 236.88 93.177C245.61 93.177 249.227 99.2723 249.227 107.929V133.45H247.648C243.885 133.45 241.323 130.888 241.323 127.124V107.176C241.323 100.328 238.082 96.3344 232.363 96.3344C226.644 96.3344 222.797 100.098 222.577 106.047V127.124C222.577 130.888 220.016 133.45 216.252 133.45H214.673L214.684 133.439Z" fill="white"/>
<path d="M137.923 63.8611C137.923 63.8611 137.902 63.8611 137.881 63.8611L135.529 63.8192C135.466 63.8192 135.404 63.8192 135.341 63.8088C130.249 63.2547 125.858 61.8851 122.272 59.7313C121.279 59.1354 120.965 57.8494 121.561 56.8666C122.157 55.8734 123.443 55.5598 124.436 56.1557C127.468 57.9853 131.263 59.1563 135.707 59.6477L137.84 59.6895C158.886 57.5567 158.373 41.0168 158.342 40.3163V39.9086C158.331 38.7585 159.251 37.8071 160.412 37.7967C161.604 37.7758 162.513 38.7167 162.524 39.8668V40.1491C162.89 47.5094 158.269 61.8746 138.143 63.8611C138.07 63.8611 138.007 63.8611 137.934 63.8611H137.923Z" fill="white"/>
<path d="M107.885 63.8609C107.812 63.8609 107.75 63.8609 107.676 63.8609C86.1599 61.7386 83.588 46.2756 83.3162 41.5812C83.2534 40.4312 84.1316 39.438 85.2817 39.3752C86.4422 39.302 87.425 40.1907 87.4877 41.3408C87.7804 46.2651 90.3524 57.9016 107.969 59.6894L110.112 59.6475C130.792 57.3579 130.28 41.0062 130.249 40.3057C130.249 34.545 127.781 27.8538 122.909 20.3053C117.975 27.927 115.58 34.4509 115.58 40.2116C115.58 41.3617 114.639 42.3026 113.489 42.3026C112.339 42.3026 111.398 41.3617 111.398 40.2116C111.398 32.9454 114.608 24.8218 121.205 15.3705C121.592 14.8059 122.24 14.4713 122.92 14.4713C123.599 14.4713 124.248 14.8059 124.634 15.3705C131.211 24.8009 134.42 32.9036 134.441 40.1594C134.797 47.4465 130.259 61.6863 110.489 63.8191C110.426 63.8191 110.363 63.8296 110.301 63.8296L107.948 63.8714C107.948 63.8714 107.927 63.8714 107.906 63.8714L107.885 63.8609Z" fill="white"/>
<path d="M133.103 62.9514C132.162 62.9514 131.315 62.3136 131.075 61.3622C130.792 60.2435 131.472 59.1039 132.601 58.8321C148.576 54.8487 148.001 40.9122 147.97 40.3162C147.97 40.2744 147.97 40.2326 147.97 40.1908C147.97 24.9264 135.048 10.7285 127.342 3.6295C126.495 2.84538 126.443 1.52804 127.227 0.67073C128.011 -0.176128 129.329 -0.228403 130.186 0.555725C140.202 9.79798 152.152 24.1632 152.162 40.1698C152.204 41.6231 152.288 58.2362 133.636 62.8886C133.469 62.9305 133.291 62.9514 133.124 62.9514H133.103Z" fill="white"/>
<path d="M114.242 63.2859C114.106 63.2859 113.97 63.2755 113.824 63.2441C97.0331 59.8671 93.3215 46.6938 93.6979 40.128C93.7293 24.1632 105.658 9.79798 115.674 0.555725C116.521 -0.228403 117.849 -0.176128 118.633 0.67073C119.417 1.51759 119.365 2.84538 118.518 3.62951C110.813 10.7494 97.8904 24.9578 97.8904 40.2012C97.8904 40.243 97.8904 40.2849 97.8904 40.3267C97.859 40.9435 97.2526 55.6433 114.671 59.1457C115.8 59.3758 116.532 60.4735 116.312 61.6027C116.113 62.5959 115.235 63.2859 114.263 63.2859H114.242Z" fill="white"/>
</svg>
