<svg width="40" height="40" viewBox="0 0 40 40" fill="none" xmlns="http://www.w3.org/2000/svg">
<g clip-path="url(#clip0_538_4335)">
<path d="M25.7983 17.5429C22.3035 20.0007 17.6911 19.9991 14.1894 17.5551C13.092 16.8683 11.9951 18.5038 13.0566 19.2562C17.2139 22.1569 22.7559 22.1569 26.9132 19.2562C28.0281 18.5229 26.9243 16.818 25.7983 17.5429Z" fill="#2A5449"/>
<path d="M14.6853 13.0679C15.2494 13.0679 15.7076 12.6097 15.7076 12.0457V6.74492C15.7076 6.18088 15.2494 5.72266 14.6853 5.72266C14.1213 5.72266 13.6631 6.18088 13.6631 6.74492V12.0457C13.6631 12.6113 14.1197 13.0679 14.6853 13.0679Z" fill="#2A5449"/>
<path d="M25.2869 13.0679C25.851 13.0679 26.3092 12.6097 26.3092 12.0457V6.74492C26.3092 6.18088 25.851 5.72266 25.2869 5.72266C24.7229 5.72266 24.2646 6.18088 24.2646 6.74492V12.0457C24.2646 12.6113 24.7213 13.0679 25.2869 13.0679Z" fill="#2A5449"/>
<path d="M20.0003 40C17.3007 40 14.6815 39.4709 12.2148 38.428C9.8332 37.4205 7.69449 35.9787 5.8579 34.1421C4.02132 32.3055 2.57947 30.1668 1.57202 27.7852C0.529122 25.319 0 22.6993 0 20.0003C0 17.3012 0.529122 14.6815 1.57202 12.2148C2.57947 9.8332 4.02132 7.69449 5.8579 5.8579C7.69449 4.02132 9.8332 2.57947 12.2148 1.57202C14.681 0.529122 17.3007 0 20.0003 0C22.6998 0 25.319 0.529122 27.7858 1.57202C30.1673 2.57947 32.306 4.02132 34.1426 5.8579C35.9792 7.69449 37.4211 9.8332 38.4285 12.2148C39.4719 14.681 40.0005 17.3007 40.0005 20.0003C40.0005 22.6998 39.4714 25.319 38.4285 27.7858C37.4211 30.1673 35.9792 32.306 34.1426 34.1426C32.306 35.9792 30.1673 37.4211 27.7858 38.4285C25.3195 39.4719 22.6998 40.0005 20.0003 40.0005V40ZM20.0003 2.22231C15.2514 2.22231 10.7872 4.07159 7.4294 7.4294C4.07159 10.7872 2.22231 15.2514 2.22231 20.0003C2.22231 24.7491 4.07159 29.2133 7.4294 32.5711C10.7872 35.9289 15.2514 37.7782 20.0003 37.7782C24.7491 37.7782 29.2133 35.9289 32.5711 32.5711C35.9289 29.2133 37.7782 24.7491 37.7782 20.0003C37.7782 15.2514 35.9289 10.7872 32.5711 7.4294C29.2133 4.07159 24.7491 2.22231 20.0003 2.22231Z" fill="#2A5449"/>
</g>
<defs>
<clipPath id="clip0_538_4335">
<rect width="40" height="40" fill="white"/>
</clipPath>
</defs>
</svg>
