<svg width="40" height="40" viewBox="0 0 40 40" fill="none" xmlns="http://www.w3.org/2000/svg">
<g clip-path="url(#clip0_538_4345)">
<path d="M27.2682 25.123H12.7057C11.3797 25.1283 11.3712 27.1538 12.7057 27.1591H27.2682C28.5941 27.1549 28.6026 25.1299 27.2682 25.123Z" fill="#2A5449"/>
<path d="M13.9194 19.8767C14.4813 19.8767 14.9374 19.4206 14.9374 18.8587V12.7944C14.9374 12.2325 14.4813 11.7764 13.9194 11.7764C13.3575 11.7764 12.9014 12.2325 12.9014 12.7944V18.8613C12.903 19.4232 13.3575 19.8767 13.9194 19.8767Z" fill="#2A5449"/>
<path d="M26.0532 19.8767C26.6151 19.8767 27.0712 19.4206 27.0712 18.8587V12.7944C27.0712 12.2325 26.6151 11.7764 26.0532 11.7764C25.4913 11.7764 25.0352 12.2325 25.0352 12.7944V18.8613C25.0367 19.4232 25.4913 19.8767 26.0532 19.8767Z" fill="#2A5449"/>
<path d="M20.0003 40C17.3007 40 14.6815 39.4709 12.2148 38.428C9.83319 37.4205 7.69448 35.9787 5.8579 34.1421C4.02132 32.3055 2.57947 30.1668 1.57202 27.7852C0.529122 25.319 0 22.6993 0 20.0003C0 17.3012 0.529122 14.6815 1.57202 12.2148C2.57947 9.83319 4.02132 7.69448 5.8579 5.8579C7.69448 4.02132 9.83319 2.57947 12.2148 1.57202C14.681 0.529122 17.3007 0 20.0003 0C22.6998 0 25.319 0.529122 27.7858 1.57202C30.1673 2.57947 32.306 4.02132 34.1426 5.8579C35.9792 7.69448 37.4211 9.83319 38.4285 12.2148C39.4719 14.681 40.0005 17.3007 40.0005 20.0003C40.0005 22.6998 39.4714 25.319 38.4285 27.7858C37.4211 30.1673 35.9792 32.306 34.1426 34.1426C32.306 35.9792 30.1673 37.4211 27.7858 38.4285C25.3195 39.4719 22.6998 40.0005 20.0003 40.0005V40ZM20.0003 2.22231C15.2514 2.22231 10.7872 4.07159 7.4294 7.4294C4.07159 10.7872 2.22231 15.2514 2.22231 20.0003C2.22231 24.7491 4.07159 29.2133 7.4294 32.5711C10.7872 35.9289 15.2514 37.7782 20.0003 37.7782C24.7491 37.7782 29.2133 35.9289 32.5711 32.5711C35.9289 29.2133 37.7782 24.7491 37.7782 20.0003C37.7782 15.2514 35.9289 10.7872 32.5711 7.4294C29.2133 4.07159 24.7491 2.22231 20.0003 2.22231Z" fill="#2A5449"/>
</g>
<defs>
<clipPath id="clip0_538_4345">
<rect width="40" height="40" fill="white"/>
</clipPath>
</defs>
</svg>
