<svg width="48" height="48" viewBox="0 0 48 48" fill="none" xmlns="http://www.w3.org/2000/svg">
<path d="M24.0003 48C20.7608 48 17.6178 47.3651 14.6577 46.1136C11.7998 44.9046 9.23338 43.1744 7.02949 40.9705C4.82559 38.7666 3.09536 36.2002 1.88642 33.3423C0.634946 30.3828 0 27.2392 0 24.0003C0 20.7615 0.634946 17.6178 1.88642 14.6577C3.09536 11.7998 4.82559 9.23338 7.02949 7.02949C9.23338 4.82559 11.7998 3.09536 14.6577 1.88642C17.6172 0.634946 20.7608 0 24.0003 0C27.2398 0 30.3828 0.634946 33.3429 1.88642C36.2008 3.09536 38.7673 4.82559 40.9712 7.02949C43.175 9.23338 44.9053 11.7998 46.1142 14.6577C47.3663 17.6172 48.0006 20.7608 48.0006 24.0003C48.0006 27.2398 47.3657 30.3828 46.1142 33.3429C44.9053 36.2008 43.175 38.7673 40.9712 40.9712C38.7673 43.175 36.2008 44.9053 33.3429 46.1142C30.3834 47.3663 27.2398 48.0006 24.0003 48.0006V48ZM24.0003 2.66677C18.3017 2.66677 12.9446 4.88591 8.91527 8.91527C4.88591 12.9446 2.66677 18.3017 2.66677 24.0003C2.66677 29.699 4.88591 35.056 8.91527 39.0854C12.9446 43.1147 18.3017 45.3339 24.0003 45.3339C29.699 45.3339 35.056 43.1147 39.0854 39.0854C43.1147 35.056 45.3339 29.699 45.3339 24.0003C45.3339 18.3017 43.1147 12.9446 39.0854 8.91527C35.056 4.88591 29.699 2.66677 24.0003 2.66677Z" fill="#C08E23"/>
<path d="M15.7848 18.7022C15.8337 18.694 15.8825 18.6826 15.9295 18.668V24.3171C15.9359 25.9089 18.362 25.914 18.3684 24.3171V17.5543L21.7958 15.8405C23.2187 15.1218 22.1342 12.9496 20.7031 13.6582L15.2362 16.3936C14.0996 16.9238 14.5352 18.7384 15.7841 18.7029L15.7848 18.7022Z" fill="#C08E23"/>
<path d="M26.1705 15.8409L29.5979 17.5546V24.3174C29.603 25.9092 32.0304 25.9143 32.0368 24.3174V18.6683C33.3473 18.9432 33.9314 16.933 32.7295 16.3933L27.2626 13.6579C25.8334 12.9525 24.7438 15.1183 26.1699 15.8402L26.1705 15.8409Z" fill="#C08E23"/>
<path d="M32.6722 31H15.1972C13.606 31.0063 13.5959 33.4369 15.1972 33.4433H32.6722C34.2633 33.4382 34.2735 31.0083 32.6722 31Z" fill="#C08E23"/>
</svg>
