<svg width="40" height="40" viewBox="0 0 40 40" fill="none" xmlns="http://www.w3.org/2000/svg">
<g clip-path="url(#clip0_538_4355)">
<path d="M20.0003 40C17.3007 40 14.6815 39.4709 12.2148 38.428C9.8332 37.4205 7.69449 35.9787 5.8579 34.1421C4.02132 32.3055 2.57947 30.1668 1.57202 27.7852C0.529122 25.319 0 22.6993 0 20.0003C0 17.3012 0.529122 14.6815 1.57202 12.2148C2.57947 9.8332 4.02132 7.69449 5.8579 5.8579C7.69449 4.02132 9.8332 2.57947 12.2148 1.57202C14.681 0.529122 17.3007 0 20.0003 0C22.6998 0 25.319 0.529122 27.7858 1.57202C30.1673 2.57947 32.306 4.02132 34.1426 5.8579C35.9792 7.69449 37.4211 9.8332 38.4285 12.2148C39.4719 14.681 40.0005 17.3007 40.0005 20.0003C40.0005 22.6998 39.4714 25.319 38.4285 27.7858C37.4211 30.1673 35.9792 32.306 34.1426 34.1426C32.306 35.9792 30.1673 37.4211 27.7858 38.4285C25.3195 39.4719 22.6998 40.0005 20.0003 40.0005V40ZM20.0003 2.22231C15.2514 2.22231 10.7872 4.07159 7.4294 7.4294C4.07159 10.7872 2.22231 15.2514 2.22231 20.0003C2.22231 24.7491 4.07159 29.2133 7.4294 32.5711C10.7872 35.9289 15.2514 37.7782 20.0003 37.7782C24.7491 37.7782 29.2133 35.9289 32.5711 32.5711C35.9289 29.2133 37.7782 24.7491 37.7782 20.0003C37.7782 15.2514 35.9289 10.7872 32.5711 7.4294C29.2133 4.07159 24.7491 2.22231 20.0003 2.22231Z" fill="#2A5449"/>
<path d="M13.1538 15.5853C13.1945 15.5784 13.2353 15.5689 13.2744 15.5567V20.2643C13.2797 21.5908 15.3015 21.5951 15.3068 20.2643V14.6286L18.163 13.2005C19.3487 12.6016 18.445 10.7914 17.2523 11.3819L12.6966 13.6614C11.7495 14.1032 12.1125 15.6154 13.1532 15.5858L13.1538 15.5853Z" fill="#2A5449"/>
<path d="M21.8093 13.2004L24.6655 14.6285V20.2642C24.6697 21.5907 26.6925 21.5949 26.6978 20.2642V15.5566C27.7899 15.7857 28.2767 14.1105 27.2751 13.6607L22.7194 11.3813C21.5283 10.7934 20.6203 12.5982 21.8088 13.1999L21.8093 13.2004Z" fill="#2A5449"/>
<path d="M27.2271 25.8335H12.6647C11.3387 25.8388 11.3302 27.8643 12.6647 27.8696H27.2271C28.5531 27.8653 28.5616 25.8404 27.2271 25.8335Z" fill="#2A5449"/>
</g>
<defs>
<clipPath id="clip0_538_4355">
<rect width="40" height="40" fill="white"/>
</clipPath>
</defs>
</svg>
