<svg width="52" height="54" viewBox="0 0 52 54" fill="none" xmlns="http://www.w3.org/2000/svg">
<circle cx="24" cy="30" r="24" fill="#DAE3E4" fill-opacity="0.4"/>
<g clip-path="url(#clip0_3693_2250)">
<path d="M19.7848 18.7022C19.8337 18.694 19.8825 18.6826 19.9295 18.668V24.3171C19.9359 25.9089 22.362 25.914 22.3684 24.3171V17.5543L25.7958 15.8405C27.2187 15.1218 26.1342 12.9496 24.7031 13.6582L19.2362 16.3936C18.0996 16.9238 18.5352 18.7384 19.7841 18.7029L19.7848 18.7022Z" fill="#2A5449"/>
<path d="M30.1708 15.8404L33.5982 17.5541V24.3169C33.6033 25.9087 36.0307 25.9138 36.037 24.3169V18.6678C37.3475 18.9427 37.9317 16.9325 36.7297 16.3928L31.2629 13.6574C29.8336 12.952 28.744 15.1178 30.1701 15.8397L30.1708 15.8404Z" fill="#2A5449"/>
<path d="M27.982 27.9777C21.2986 27.9777 18.9067 31.0673 18.8077 31.1988C17.8724 32.4636 19.7652 33.8979 20.7462 32.6782C23.1202 29.6863 32.8622 29.7219 35.207 32.6617C36.1645 33.9316 38.1126 32.4782 37.1582 31.1981C37.0592 31.0667 34.6654 27.9771 27.9826 27.9771L27.982 27.9777Z" fill="#2A5449"/>
<path d="M28.0003 48C24.7608 48 21.6178 47.3651 18.6577 46.1136C15.7998 44.9046 13.2334 43.1744 11.0295 40.9705C8.82559 38.7666 7.09536 36.2002 5.88642 33.3423C4.63495 30.3828 4 27.2392 4 24.0003C4 20.7615 4.63495 17.6178 5.88642 14.6577C7.09536 11.7998 8.82559 9.23338 11.0295 7.02949C13.2334 4.82559 15.7998 3.09536 18.6577 1.88642C21.6172 0.634946 24.7608 0 28.0003 0C31.2398 0 34.3828 0.634946 37.3429 1.88642C40.2008 3.09536 42.7673 4.82559 44.9712 7.02949C47.175 9.23338 48.9053 11.7998 50.1142 14.6577C51.3663 17.6172 52.0006 20.7608 52.0006 24.0003C52.0006 27.2398 51.3657 30.3828 50.1142 33.3429C48.9053 36.2008 47.175 38.7673 44.9712 40.9712C42.7673 43.175 40.2008 44.9053 37.3429 46.1142C34.3834 47.3663 31.2398 48.0006 28.0003 48.0006V48ZM28.0003 2.66677C22.3017 2.66677 16.9446 4.88591 12.9153 8.91527C8.88591 12.9446 6.66677 18.3017 6.66677 24.0003C6.66677 29.699 8.88591 35.056 12.9153 39.0854C16.9446 43.1147 22.3017 45.3339 28.0003 45.3339C33.699 45.3339 39.056 43.1147 43.0854 39.0854C47.1147 35.056 49.3339 29.699 49.3339 24.0003C49.3339 18.3017 47.1147 12.9446 43.0854 8.91527C39.056 4.88591 33.699 2.66677 28.0003 2.66677Z" fill="#2A5449"/>
</g>
<defs>
<clipPath id="clip0_3693_2250">
<rect width="48" height="48" fill="white" transform="translate(4)"/>
</clipPath>
</defs>
</svg>
