<svg width="72" height="72" viewBox="0 0 72 72" fill="none" xmlns="http://www.w3.org/2000/svg">
<g opacity="0.72">
<path d="M36 72C55.8823 72 72 55.8823 72 36C72 16.1177 55.8823 0 36 0C16.1177 0 0 16.1177 0 36C0 55.8823 16.1177 72 36 72Z" fill="#C3BDA6"/>
<path d="M29.3095 52.8068C29.8951 52.7434 30.4953 52.6507 31.1541 52.5238H31.281C31.5543 52.5384 31.769 52.4701 31.9642 52.3579L32.0277 52.3335C33.438 51.9919 34.7263 51.5039 35.8585 50.8841L35.9756 50.8207L36.0927 50.8841C37.9471 51.8894 40.1578 52.5384 42.6661 52.8117C42.7052 52.8117 42.7442 52.8166 42.7784 52.8166L44.0765 52.841C44.1155 52.841 44.1594 52.841 44.1985 52.8361C57.56 51.5185 57.4575 40.4262 57.4477 39.9577V39.7771C57.438 39.0842 56.8621 38.523 56.1643 38.523C55.8276 38.523 55.5104 38.6596 55.2712 38.9036C55.0321 39.1476 54.9052 39.4648 54.9101 39.8064V40.0407C54.9248 40.2993 55.1346 46.5653 48.571 49.2346L47.4388 49.6934L48.3026 48.8345C51.9138 45.2525 51.8796 40.4896 51.865 39.9577C51.8552 31.2908 45.4038 23.5218 39.9919 18.5295C39.7381 18.2952 39.4209 18.1781 39.0793 18.1928C38.7377 18.2074 38.4254 18.3489 38.196 18.6027C37.9667 18.8516 37.8447 19.1736 37.8593 19.5152C37.8739 19.8569 38.0155 20.1692 38.2643 20.3985C45.3941 26.9719 49.3176 33.9211 49.3176 39.9675V40.0504C49.3371 40.3579 49.6397 47.7414 41.1631 49.8544C41.0948 49.8691 41.0313 49.8983 40.9679 49.9227L40.8947 49.952L40.8166 49.9325C40.0504 49.7617 39.3233 49.5421 38.6596 49.2834L38.3083 49.1468L38.5767 48.8833C42.388 45.1598 42.3245 40.1724 42.3196 39.9626C42.3196 36.0195 40.5823 31.6226 37.0199 26.5181C36.7808 26.1765 36.3953 25.9764 35.9805 25.9764C35.5657 25.9764 35.1753 26.1814 34.941 26.5181C31.3737 31.6275 29.6413 36.0293 29.6413 39.9675C29.6413 40.6653 30.2123 41.2363 30.9101 41.2363C31.608 41.2363 32.1789 40.6653 32.1789 39.9675C32.1789 37.0834 33.3892 33.682 35.7755 29.856L35.9805 29.5242L36.1854 29.856C38.5718 33.682 39.782 37.1078 39.782 40.0407C39.7967 40.3481 40.0407 47.8926 31.2322 49.9227L31.1785 49.9374L31.1248 49.9227C22.331 47.9024 22.6434 40.3725 22.658 40.0504C22.658 40.0211 22.658 39.9919 22.658 39.9675C22.658 33.9309 26.5815 26.9817 33.7113 20.3985C33.9601 20.1692 34.1065 19.8569 34.1163 19.5152C34.1309 19.1785 34.0089 18.8516 33.7796 18.6027C33.5502 18.3538 33.2379 18.2074 32.8963 18.1976C32.5596 18.183 32.2326 18.305 31.9837 18.5344C26.5718 23.5315 20.1204 31.3005 20.1155 39.9431C20.0911 40.8215 20.1448 45.3453 23.6779 48.8442L24.5368 49.6934L23.4144 49.2444C18.0122 47.0777 17.1777 42.4563 17.0655 40.5677C17.0264 39.8747 16.4311 39.3428 15.7235 39.3721C15.0256 39.4111 14.4937 40.0163 14.5327 40.7141C14.684 43.2664 16.0797 51.6844 27.7674 52.8312C27.8113 52.8312 27.8503 52.8361 27.8943 52.8361L29.1826 52.8117C29.2216 52.8117 29.2607 52.8117 29.2948 52.8068H29.3095Z" fill="white"/>
</g>
</svg>
