<svg width="54" height="52" viewBox="0 0 54 52" fill="none" xmlns="http://www.w3.org/2000/svg">
<circle cx="30" cy="24" r="24" fill="#DAE3E4" fill-opacity="0.6"/>
<g clip-path="url(#clip0_3693_2249)">
<path d="M30.9574 25.0507C26.7636 28.0001 21.2288 27.9982 17.0267 25.0654C15.7098 24.2412 14.3936 26.2038 15.6673 27.1067C20.6561 30.5875 27.3065 30.5875 32.2952 27.1067C33.6331 26.2267 32.3086 24.1809 30.9574 25.0507Z" fill="#2A5449"/>
<path d="M17.6222 19.681C18.2991 19.681 18.8489 19.1312 18.8489 18.4543V12.0934C18.8489 11.4166 18.2991 10.8667 17.6222 10.8667C16.9454 10.8667 16.3955 11.4166 16.3955 12.0934V18.4543C16.3955 19.1331 16.9435 19.681 17.6222 19.681Z" fill="#2A5449"/>
<path d="M30.3441 19.681C31.021 19.681 31.5709 19.1312 31.5709 18.4543V12.0934C31.5709 11.4166 31.021 10.8667 30.3441 10.8667C29.6673 10.8667 29.1174 11.4166 29.1174 12.0934V18.4543C29.1174 19.1331 29.6654 19.681 30.3441 19.681Z" fill="#2A5449"/>
<path d="M24.0003 52C20.7608 52 17.6178 51.3651 14.6577 50.1136C11.7998 48.9046 9.23338 47.1744 7.02949 44.9705C4.82559 42.7666 3.09536 40.2002 1.88642 37.3423C0.634946 34.3828 0 31.2392 0 28.0003C0 24.7615 0.634946 21.6178 1.88642 18.6577C3.09536 15.7998 4.82559 13.2334 7.02949 11.0295C9.23338 8.82559 11.7998 7.09536 14.6577 5.88642C17.6172 4.63495 20.7608 4 24.0003 4C27.2398 4 30.3828 4.63495 33.3429 5.88642C36.2008 7.09536 38.7673 8.82559 40.9712 11.0295C43.175 13.2334 44.9053 15.7998 46.1142 18.6577C47.3663 21.6172 48.0006 24.7608 48.0006 28.0003C48.0006 31.2398 47.3657 34.3828 46.1142 37.3429C44.9053 40.2008 43.175 42.7673 40.9712 44.9712C38.7673 47.175 36.2008 48.9053 33.3429 50.1142C30.3834 51.3663 27.2398 52.0006 24.0003 52.0006V52ZM24.0003 6.66677C18.3017 6.66677 12.9446 8.88591 8.91527 12.9153C4.88591 16.9446 2.66677 22.3017 2.66677 28.0003C2.66677 33.699 4.88591 39.056 8.91527 43.0854C12.9446 47.1147 18.3017 49.3339 24.0003 49.3339C29.699 49.3339 35.056 47.1147 39.0854 43.0854C43.1147 39.056 45.3339 33.699 45.3339 28.0003C45.3339 22.3017 43.1147 16.9446 39.0854 12.9153C35.056 8.88591 29.699 6.66677 24.0003 6.66677Z" fill="#2A5449"/>
</g>
<defs>
<clipPath id="clip0_3693_2249">
<rect width="48" height="48" fill="white" transform="translate(0 4)"/>
</clipPath>
</defs>
</svg>
