<svg width="55" height="52" viewBox="0 0 55 52" fill="none" xmlns="http://www.w3.org/2000/svg">
<circle cx="24" cy="24" r="24" fill="#DAE3E4" fill-opacity="0.4"/>
<g clip-path="url(#clip0_3685_2237)">
<path d="M38.6438 30.5703H23.3556C22.6775 30.5722 22.1289 31.1208 22.127 31.7989C22.127 31.8745 22.2285 39.3618 31.0003 39.3618C39.7721 39.3618 39.8718 31.8745 39.8718 31.7989C39.8718 31.1208 39.3213 30.5703 38.6432 30.5703H38.6438ZM31.001 36.9128C26.5779 36.9128 25.2058 34.5622 24.7766 33.0358H37.226C36.7967 34.566 35.424 36.9128 31.0016 36.9128H31.001Z" fill="#2A5449"/>
<path d="M24.6324 25.3829C25.3106 25.3829 25.861 24.8324 25.861 24.1543V17.7857C25.861 17.1076 25.3106 16.5571 24.6324 16.5571C23.9543 16.5571 23.4038 17.1076 23.4038 17.7857V24.1543C23.4038 24.8324 23.9543 25.3829 24.6324 25.3829Z" fill="#2A5449"/>
<path d="M37.3714 25.3829C38.0496 25.3829 38.6001 24.8324 38.6001 24.1543V17.7857C38.6001 17.1076 38.0496 16.5571 37.3714 16.5571C36.6933 16.5571 36.1428 17.1076 36.1428 17.7857V24.1543C36.1428 24.8324 36.6933 25.3829 37.3714 25.3829Z" fill="#2A5449"/>
<path d="M31.0003 52C27.7608 52 24.6178 51.3651 21.6577 50.1136C18.7998 48.9046 16.2334 47.1744 14.0295 44.9705C11.8256 42.7666 10.0954 40.2002 8.88642 37.3423C7.63495 34.3828 7 31.2392 7 28.0003C7 24.7615 7.63495 21.6178 8.88642 18.6577C10.0954 15.7998 11.8256 13.2334 14.0295 11.0295C16.2334 8.82559 18.7998 7.09536 21.6577 5.88642C24.6172 4.63495 27.7608 4 31.0003 4C34.2398 4 37.3828 4.63495 40.3429 5.88642C43.2008 7.09536 45.7673 8.82559 47.9712 11.0295C50.175 13.2334 51.9053 15.7998 53.1142 18.6577C54.3663 21.6172 55.0006 24.7608 55.0006 28.0003C55.0006 31.2398 54.3657 34.3828 53.1142 37.3429C51.9053 40.2008 50.175 42.7673 47.9712 44.9712C45.7673 47.175 43.2008 48.9053 40.3429 50.1142C37.3834 51.3663 34.2398 52.0006 31.0003 52.0006V52ZM31.0003 6.66677C25.3017 6.66677 19.9446 8.88591 15.9153 12.9153C11.8859 16.9446 9.66677 22.3017 9.66677 28.0003C9.66677 33.699 11.8859 39.056 15.9153 43.0854C19.9446 47.1147 25.3017 49.3339 31.0003 49.3339C36.699 49.3339 42.056 47.1147 46.0854 43.0854C50.1147 39.056 52.3339 33.699 52.3339 28.0003C52.3339 22.3017 50.1147 16.9446 46.0854 12.9153C42.056 8.88591 36.699 6.66677 31.0003 6.66677Z" fill="#2A5449"/>
</g>
<defs>
<clipPath id="clip0_3685_2237">
<rect width="48" height="48" fill="white" transform="translate(7 4)"/>
</clipPath>
</defs>
</svg>
