<svg width="48" height="55" viewBox="0 0 48 55" fill="none" xmlns="http://www.w3.org/2000/svg">
<circle cx="24" cy="31" r="24" fill="#DAE3E4" fill-opacity="0.4"/>
<g clip-path="url(#clip0_3693_2252)">
<path d="M32.722 30.1475H15.247C13.6558 30.1538 13.6457 32.5844 15.247 32.5907H32.722C34.3132 32.5857 34.3233 30.1557 32.722 30.1475Z" fill="#2A5449"/>
<path d="M16.7028 23.8517C17.3771 23.8517 17.9245 23.3044 17.9245 22.6301V15.353C17.9245 14.6787 17.3771 14.1313 16.7028 14.1313C16.0285 14.1313 15.4812 14.6787 15.4812 15.353V22.6333C15.4831 23.3076 16.0285 23.8517 16.7028 23.8517Z" fill="#2A5449"/>
<path d="M31.2641 23.8517C31.9384 23.8517 32.4858 23.3044 32.4858 22.6301V15.353C32.4858 14.6787 31.9384 14.1313 31.2641 14.1313C30.5898 14.1313 30.0425 14.6787 30.0425 15.353V22.6333C30.0444 23.3076 30.5898 23.8517 31.2641 23.8517Z" fill="#2A5449"/>
<path d="M24.0003 48C20.7608 48 17.6178 47.3651 14.6577 46.1136C11.7998 44.9046 9.23338 43.1744 7.02949 40.9705C4.82559 38.7666 3.09536 36.2002 1.88642 33.3423C0.634946 30.3828 0 27.2392 0 24.0003C0 20.7615 0.634946 17.6178 1.88642 14.6577C3.09536 11.7998 4.82559 9.23338 7.02949 7.02949C9.23338 4.82559 11.7998 3.09536 14.6577 1.88642C17.6172 0.634946 20.7608 0 24.0003 0C27.2398 0 30.3828 0.634946 33.3429 1.88642C36.2008 3.09536 38.7673 4.82559 40.9712 7.02949C43.175 9.23338 44.9053 11.7998 46.1142 14.6577C47.3663 17.6172 48.0006 20.7608 48.0006 24.0003C48.0006 27.2398 47.3657 30.3828 46.1142 33.3429C44.9053 36.2008 43.175 38.7673 40.9712 40.9712C38.7673 43.175 36.2008 44.9053 33.3429 46.1142C30.3834 47.3663 27.2398 48.0006 24.0003 48.0006V48ZM24.0003 2.66677C18.3017 2.66677 12.9446 4.88591 8.91527 8.91527C4.88591 12.9446 2.66677 18.3017 2.66677 24.0003C2.66677 29.699 4.88591 35.056 8.91527 39.0854C12.9446 43.1147 18.3017 45.3339 24.0003 45.3339C29.699 45.3339 35.056 43.1147 39.0854 39.0854C43.1147 35.056 45.3339 29.699 45.3339 24.0003C45.3339 18.3017 43.1147 12.9446 39.0854 8.91527C35.056 4.88591 29.699 2.66677 24.0003 2.66677Z" fill="#2A5449"/>
</g>
<defs>
<clipPath id="clip0_3693_2252">
<rect width="48" height="48" fill="white"/>
</clipPath>
</defs>
</svg>
