<svg width="48" height="55" viewBox="0 0 48 55" fill="none" xmlns="http://www.w3.org/2000/svg">
<circle cx="24" cy="24" r="24" fill="#DAE3E4" fill-opacity="0.4"/>
<g clip-path="url(#clip0_3693_2253)">
<path d="M24.0003 55C20.7608 55 17.6178 54.3651 14.6577 53.1136C11.7998 51.9046 9.23338 50.1744 7.02949 47.9705C4.82559 45.7666 3.09536 43.2002 1.88642 40.3423C0.634946 37.3828 0 34.2392 0 31.0003C0 27.7615 0.634946 24.6178 1.88642 21.6577C3.09536 18.7998 4.82559 16.2334 7.02949 14.0295C9.23338 11.8256 11.7998 10.0954 14.6577 8.88642C17.6172 7.63495 20.7608 7 24.0003 7C27.2398 7 30.3828 7.63495 33.3429 8.88642C36.2008 10.0954 38.7673 11.8256 40.9712 14.0295C43.175 16.2334 44.9053 18.7998 46.1142 21.6577C47.3663 24.6172 48.0006 27.7608 48.0006 31.0003C48.0006 34.2398 47.3657 37.3828 46.1142 40.3429C44.9053 43.2008 43.175 45.7673 40.9712 47.9712C38.7673 50.175 36.2008 51.9053 33.3429 53.1142C30.3834 54.3663 27.2398 55.0006 24.0003 55.0006V55ZM24.0003 9.66677C18.3017 9.66677 12.9446 11.8859 8.91527 15.9153C4.88591 19.9446 2.66677 25.3017 2.66677 31.0003C2.66677 36.699 4.88591 42.056 8.91527 46.0854C12.9446 50.1147 18.3017 52.3339 24.0003 52.3339C29.699 52.3339 35.056 50.1147 39.0854 46.0854C43.1147 42.056 45.3339 36.699 45.3339 31.0003C45.3339 25.3017 43.1147 19.9446 39.0854 15.9153C35.056 11.8859 29.699 9.66677 24.0003 9.66677Z" fill="#2A5449"/>
<path d="M15.7848 25.7022C15.8337 25.694 15.8825 25.6826 15.9295 25.668V31.3171C15.9359 32.9089 18.362 32.914 18.3684 31.3171V24.5543L21.7958 22.8405C23.2187 22.1218 22.1342 19.9496 20.7031 20.6582L15.2362 23.3936C14.0996 23.9238 14.5352 25.7384 15.7841 25.7029L15.7848 25.7022Z" fill="#2A5449"/>
<path d="M26.1705 22.8409L29.5979 24.5546V31.3174C29.603 32.9092 32.0304 32.9143 32.0368 31.3174V25.6683C33.3473 25.9432 33.9314 23.933 32.7295 23.3933L27.2626 20.6579C25.8334 19.9525 24.7438 22.1183 26.1699 22.8402L26.1705 22.8409Z" fill="#2A5449"/>
<path d="M32.6722 38H15.1972C13.606 38.0063 13.5959 40.4369 15.1972 40.4433H32.6722C34.2633 40.4382 34.2735 38.0083 32.6722 38Z" fill="#2A5449"/>
</g>
<defs>
<clipPath id="clip0_3693_2253">
<rect width="48" height="48" fill="white" transform="translate(0 7)"/>
</clipPath>
</defs>
</svg>
