<svg width="48" height="48" viewBox="0 0 48 48" fill="none" xmlns="http://www.w3.org/2000/svg">
<path d="M23.9831 28.2852C16.3459 28.2852 13.6322 31.7869 13.5198 31.9342C12.5832 33.2054 14.4824 34.6479 15.4684 33.4206C18.4222 29.8649 29.5744 29.9074 32.4875 33.406C33.4488 34.6791 35.3988 33.225 34.4457 31.9374C34.3346 31.7888 31.6208 28.2852 23.9837 28.2852H23.9831Z" fill="#F86060"/>
<path d="M16.6773 17.6589L14.1445 20.492C13.0835 21.6851 14.8938 23.3118 15.9674 22.1257C15.9694 22.1276 19.2311 18.4754 19.233 18.4754C19.6476 18.0106 19.6476 17.3084 19.233 16.8436L15.9694 13.1965C14.8969 11.999 13.0715 13.6276 14.1452 14.8283L16.678 17.6595L16.6773 17.6589Z" fill="#F86060"/>
<path d="M31.9973 22.123C33.0698 23.2996 34.8711 21.6875 33.8215 20.4912L31.2887 17.6581L33.8215 14.8269C34.8902 13.637 33.0856 12.002 32.0069 13.1849C32.0018 13.1881 28.7401 16.8371 28.7331 16.8422C28.3185 17.307 28.3185 18.0092 28.7331 18.474L31.9967 22.123H31.9973Z" fill="#F86060"/>
<path d="M24.0003 48C20.7608 48 17.6178 47.3651 14.6577 46.1136C11.7998 44.9046 9.23338 43.1744 7.02949 40.9705C4.82559 38.7666 3.09536 36.2002 1.88642 33.3423C0.634946 30.3828 0 27.2392 0 24.0003C0 20.7615 0.634946 17.6178 1.88642 14.6577C3.09536 11.7998 4.82559 9.23338 7.02949 7.02949C9.23338 4.82559 11.7998 3.09536 14.6577 1.88642C17.6172 0.634946 20.7608 0 24.0003 0C27.2398 0 30.3828 0.634946 33.3429 1.88642C36.2008 3.09536 38.7673 4.82559 40.9712 7.02949C43.175 9.23338 44.9053 11.7998 46.1142 14.6577C47.3663 17.6172 48.0006 20.7608 48.0006 24.0003C48.0006 27.2398 47.3657 30.3828 46.1142 33.3429C44.9053 36.2008 43.175 38.7673 40.9712 40.9712C38.7673 43.175 36.2008 44.9053 33.3429 46.1142C30.3834 47.3663 27.2398 48.0006 24.0003 48.0006V48ZM24.0003 2.66677C18.3017 2.66677 12.9446 4.88591 8.91527 8.91527C4.88591 12.9446 2.66677 18.3017 2.66677 24.0003C2.66677 29.699 4.88591 35.056 8.91527 39.0854C12.9446 43.1147 18.3017 45.3339 24.0003 45.3339C29.699 45.3339 35.056 43.1147 39.0854 39.0854C43.1147 35.056 45.3339 29.699 45.3339 24.0003C45.3339 18.3017 43.1147 12.9446 39.0854 8.91527C35.056 4.88591 29.699 2.66677 24.0003 2.66677Z" fill="#F86060"/>
</svg>
