<svg width="20" height="20" viewBox="0 0 20 20" fill="none" xmlns="http://www.w3.org/2000/svg">
<path d="M2.5 2.5L17.5 17.5" stroke="#9FA4AE" stroke-width="1.5" stroke-linecap="round" stroke-linejoin="round"/>
<path d="M8.74992 8.89758C8.49059 9.19133 8.33325 9.57733 8.33325 10C8.33325 10.9204 9.07942 11.6667 9.99992 11.6667C10.4226 11.6667 10.8085 11.5093 11.1023 11.25" stroke="#9FA4AE" stroke-width="1.5" stroke-linecap="round" stroke-linejoin="round"/>
<path d="M6.13488 6.3009C4.73335 7.28305 3.56578 8.68232 2.5 9.99999C4.0738 12.4925 6.90142 15 10 15C11.2916 15 12.5362 14.5643 13.6624 13.8757" stroke="#9FA4AE" stroke-width="1.5" stroke-linecap="round" stroke-linejoin="round"/>
<path d="M10 5C13.3403 5 15.5846 7.63183 17.5 10C17.2346 10.4202 16.9336 10.841 16.6017 11.25" stroke="#9FA4AE" stroke-width="1.5" stroke-linecap="round" stroke-linejoin="round"/>
</svg>
