<svg width="24" height="24" viewBox="0 0 24 24" fill="none" xmlns="http://www.w3.org/2000/svg">
<path d="M15.4782 10.5259C13.3813 12.0005 10.6139 11.9996 8.51287 10.5332C7.85443 10.1211 7.19631 11.1024 7.83316 11.5538C10.3275 13.2942 13.6528 13.2942 16.1471 11.5538C16.8161 11.1138 16.1538 10.0909 15.4782 10.5259Z" fill="white"/>
<path d="M8.81062 7.84075C9.14905 7.84075 9.42398 7.56582 9.42398 7.2274V4.04695C9.42398 3.70853 9.14905 3.43359 8.81062 3.43359C8.4722 3.43359 8.19727 3.70853 8.19727 4.04695V7.2274C8.19727 7.56677 8.47125 7.84075 8.81062 7.84075Z" fill="white"/>
<path d="M15.172 7.84075C15.5104 7.84075 15.7853 7.56582 15.7853 7.2274V4.04695C15.7853 3.70853 15.5104 3.43359 15.172 3.43359C14.8335 3.43359 14.5586 3.70853 14.5586 4.04695V7.2274C14.5586 7.56677 14.8326 7.84075 15.172 7.84075Z" fill="white"/>
<path d="M12.0002 24C10.3804 24 8.80892 23.6825 7.32886 23.0568C5.89992 22.4523 4.61669 21.5872 3.51474 20.4853C2.41279 19.3833 1.54768 18.1001 0.943212 16.6711C0.317473 15.1914 0 13.6196 0 12.0002C0 10.3807 0.317473 8.80892 0.943212 7.32886C1.54768 5.89992 2.41279 4.61669 3.51474 3.51474C4.61669 2.41279 5.89992 1.54768 7.32886 0.943212C8.8086 0.317473 10.3804 0 12.0002 0C13.6199 0 15.1914 0.317473 16.6715 0.943212C18.1004 1.54768 19.3836 2.41279 20.4856 3.51474C21.5875 4.61669 22.4526 5.89992 23.0571 7.32886C23.6832 8.8086 24.0003 10.3804 24.0003 12.0002C24.0003 13.6199 23.6828 15.1914 23.0571 16.6715C22.4526 18.1004 21.5875 19.3836 20.4856 20.4856C19.3836 21.5875 18.1004 22.4526 16.6715 23.0571C15.1917 23.6832 13.6199 24.0003 12.0002 24.0003V24ZM12.0002 1.33339C9.15084 1.33339 6.47232 2.44295 4.45764 4.45764C2.44295 6.47232 1.33339 9.15084 1.33339 12.0002C1.33339 14.8495 2.44295 17.528 4.45764 19.5427C6.47232 21.5574 9.15084 22.6669 12.0002 22.6669C14.8495 22.6669 17.528 21.5574 19.5427 19.5427C21.5574 17.528 22.6669 14.8495 22.6669 12.0002C22.6669 9.15084 21.5574 6.47232 19.5427 4.45764C17.528 2.44295 14.8495 1.33339 12.0002 1.33339Z" fill="white"/>
</svg>
