<svg width="28" height="28" viewBox="0 0 28 28" fill="none" xmlns="http://www.w3.org/2000/svg">
<path d="M24.5007 2.3335H3.50065C3.19123 2.3335 2.89449 2.45641 2.67569 2.6752C2.4569 2.894 2.33398 3.19074 2.33398 3.50016V24.5002C2.33398 24.8096 2.4569 25.1063 2.67569 25.3251C2.89449 25.5439 3.19123 25.6668 3.50065 25.6668H24.5007C24.8101 25.6668 25.1068 25.5439 25.3256 25.3251C25.5444 25.1063 25.6673 24.8096 25.6673 24.5002V3.50016C25.6673 3.19074 25.5444 2.894 25.3256 2.6752C25.1068 2.45641 24.8101 2.3335 24.5007 2.3335ZM20.6728 12.5127C20.5456 12.5251 20.4179 12.5317 20.2902 12.5325C19.598 12.5334 18.9165 12.3618 18.3072 12.0333C17.698 11.7047 17.1802 11.2295 16.8006 10.6507V17.0592C16.8009 17.9963 16.5232 18.9125 16.0027 19.6918C15.4822 20.4711 14.7422 21.0786 13.8764 21.4373C13.0107 21.796 12.058 21.89 11.1388 21.7072C10.2196 21.5244 9.37533 21.0732 8.71266 20.4105C8.05 19.7478 7.59874 18.9035 7.41596 17.9843C7.23319 17.0652 7.32711 16.1125 7.68585 15.2467C8.04459 14.3809 8.65203 13.641 9.43135 13.1205C10.2107 12.6 11.1268 12.3223 12.064 12.3225C12.1632 12.3225 12.2588 12.3318 12.3568 12.3377V14.671C12.0304 14.6315 11.6994 14.6591 11.384 14.7522C11.0687 14.8453 10.7757 15.0019 10.5231 15.2124C10.2705 15.4228 10.0636 15.6828 9.91516 15.9761C9.7667 16.2695 9.6798 16.5901 9.6598 16.9183C9.6398 17.2465 9.68713 17.5753 9.79887 17.8845C9.91061 18.1938 10.0844 18.4769 10.3096 18.7165C10.5347 18.9561 10.8065 19.1471 11.1082 19.2778C11.4099 19.4085 11.7352 19.4761 12.064 19.4765C12.7128 19.4882 13.3404 19.2449 13.8117 18.7987C14.2829 18.3525 14.5602 17.7392 14.584 17.0907L14.6073 6.2045H16.8403C16.9423 7.17453 17.382 8.07784 18.0826 8.75646C18.7832 9.43508 19.7 9.84582 20.6728 9.91683V12.5127Z" fill="white"/>
</svg>
