<svg width="48" height="48" viewBox="0 0 48 48" fill="none" xmlns="http://www.w3.org/2000/svg">
<g clip-path="url(#clip0_452_2780)">
<path d="M31.6438 26.5703H16.3556C15.6775 26.5722 15.1289 27.1208 15.127 27.7989C15.127 27.8745 15.2285 35.3618 24.0003 35.3618C32.7721 35.3618 32.8718 27.8745 32.8718 27.7989C32.8718 27.1208 32.3213 26.5703 31.6432 26.5703H31.6438ZM24.001 32.9128C19.5779 32.9128 18.2058 30.5622 17.7766 29.0358H30.226C29.7967 30.566 28.424 32.9128 24.0016 32.9128H24.001Z" fill="#2A5449"/>
<path d="M17.6324 21.3829C18.3106 21.3829 18.861 20.8324 18.861 20.1543V13.7857C18.861 13.1076 18.3106 12.5571 17.6324 12.5571C16.9543 12.5571 16.4038 13.1076 16.4038 13.7857V20.1543C16.4038 20.8324 16.9543 21.3829 17.6324 21.3829Z" fill="#2A5449"/>
<path d="M30.3714 21.3829C31.0496 21.3829 31.6001 20.8324 31.6001 20.1543V13.7857C31.6001 13.1076 31.0496 12.5571 30.3714 12.5571C29.6933 12.5571 29.1428 13.1076 29.1428 13.7857V20.1543C29.1428 20.8324 29.6933 21.3829 30.3714 21.3829Z" fill="#2A5449"/>
<path d="M24.0003 48C20.7608 48 17.6178 47.3651 14.6577 46.1136C11.7998 44.9046 9.23338 43.1744 7.02949 40.9705C4.82559 38.7666 3.09536 36.2002 1.88642 33.3423C0.634946 30.3828 0 27.2392 0 24.0003C0 20.7615 0.634946 17.6178 1.88642 14.6577C3.09536 11.7998 4.82559 9.23338 7.02949 7.02949C9.23338 4.82559 11.7998 3.09536 14.6577 1.88642C17.6172 0.634946 20.7608 0 24.0003 0C27.2398 0 30.3828 0.634946 33.3429 1.88642C36.2008 3.09536 38.7673 4.82559 40.9712 7.02949C43.175 9.23338 44.9053 11.7998 46.1142 14.6577C47.3663 17.6172 48.0006 20.7608 48.0006 24.0003C48.0006 27.2398 47.3657 30.3828 46.1142 33.3429C44.9053 36.2008 43.175 38.7673 40.9712 40.9712C38.7673 43.175 36.2008 44.9053 33.3429 46.1142C30.3834 47.3663 27.2398 48.0006 24.0003 48.0006V48ZM24.0003 2.66677C18.3017 2.66677 12.9446 4.88591 8.91527 8.91527C4.88591 12.9446 2.66677 18.3017 2.66677 24.0003C2.66677 29.699 4.88591 35.056 8.91527 39.0854C12.9446 43.1147 18.3017 45.3339 24.0003 45.3339C29.699 45.3339 35.056 43.1147 39.0854 39.0854C43.1147 35.056 45.3339 29.699 45.3339 24.0003C45.3339 18.3017 43.1147 12.9446 39.0854 8.91527C35.056 4.88591 29.699 2.66677 24.0003 2.66677Z" fill="#2A5449"/>
</g>
<defs>
<clipPath id="clip0_452_2780">
<rect width="48" height="48" fill="white"/>
</clipPath>
</defs>
</svg>
