<svg width="28" height="28" viewBox="0 0 28 28" fill="none" xmlns="http://www.w3.org/2000/svg">
<path d="M24.384 2.3335H3.61732C3.27696 2.3335 2.95054 2.4687 2.70986 2.70938C2.46919 2.95005 2.33398 3.27647 2.33398 3.61683V24.3835C2.33398 24.552 2.36718 24.7189 2.43167 24.8746C2.49617 25.0303 2.5907 25.1718 2.70986 25.291C2.82903 25.4101 2.97051 25.5046 3.12621 25.5691C3.28191 25.6336 3.44879 25.6668 3.61732 25.6668H14.794V16.6252H11.7607V13.1252H14.794V10.5002C14.7311 9.88388 14.8039 9.26131 15.0072 8.67612C15.2104 8.09093 15.5392 7.5573 15.9705 7.11264C16.4018 6.66799 16.9252 6.32308 17.5039 6.10211C18.0827 5.88114 18.7027 5.78946 19.3207 5.8335C20.2287 5.82791 21.1363 5.87465 22.039 5.9735V9.1235H20.184C18.714 9.1235 18.434 9.8235 18.434 10.8385V13.0902H21.934L21.479 16.5902H18.434V25.6668H24.384C24.5525 25.6668 24.7194 25.6336 24.8751 25.5691C25.0308 25.5046 25.1723 25.4101 25.2914 25.291C25.4106 25.1718 25.5051 25.0303 25.5696 24.8746C25.6341 24.7189 25.6673 24.552 25.6673 24.3835V3.61683C25.6673 3.4483 25.6341 3.28142 25.5696 3.12572C25.5051 2.97002 25.4106 2.82854 25.2914 2.70938C25.1723 2.59021 25.0308 2.49568 24.8751 2.43118C24.7194 2.36669 24.5525 2.3335 24.384 2.3335Z" fill="white"/>
</svg>
