<svg width="28" height="28" viewBox="0 0 28 28" fill="none" xmlns="http://www.w3.org/2000/svg">
<path d="M20.2306 6.37016C19.9538 6.37016 19.6831 6.45227 19.4529 6.60611C19.2226 6.75994 19.0432 6.97859 18.9372 7.23441C18.8313 7.49022 18.8035 7.77172 18.8576 8.04329C18.9116 8.31486 19.0449 8.56432 19.2407 8.76011C19.4365 8.95591 19.686 9.08924 19.9575 9.14326C20.2291 9.19728 20.5106 9.16956 20.7664 9.06359C21.0222 8.95763 21.2409 8.77819 21.3947 8.54796C21.5485 8.31773 21.6307 8.04706 21.6307 7.77016C21.6307 7.39886 21.4832 7.04276 21.2206 6.78021C20.958 6.51766 20.602 6.37016 20.2306 6.37016ZM25.5973 9.1935C25.5746 8.22551 25.3933 7.2678 25.0606 6.3585C24.764 5.58048 24.3023 4.87599 23.7073 4.2935C23.1296 3.69549 22.4235 3.2367 21.6423 2.95183C20.7354 2.60902 19.7766 2.42357 18.8073 2.4035C17.5707 2.3335 17.174 2.3335 14.0007 2.3335C10.8273 2.3335 10.4307 2.3335 9.19398 2.4035C8.22466 2.42357 7.26588 2.60902 6.35898 2.95183C5.57927 3.23959 4.87374 3.69798 4.29398 4.2935C3.69598 4.8712 3.23719 5.57734 2.95232 6.3585C2.60951 7.2654 2.42406 8.22417 2.40398 9.1935C2.33398 10.4302 2.33398 10.8268 2.33398 14.0002C2.33398 17.1735 2.33398 17.5702 2.40398 18.8068C2.42406 19.7762 2.60951 20.7349 2.95232 21.6418C3.23719 22.423 3.69598 23.1291 4.29398 23.7068C4.87374 24.3023 5.57927 24.7607 6.35898 25.0485C7.26588 25.3913 8.22466 25.5768 9.19398 25.5968C10.4307 25.6668 10.8273 25.6668 14.0007 25.6668C17.174 25.6668 17.5707 25.6668 18.8073 25.5968C19.7766 25.5768 20.7354 25.3913 21.6423 25.0485C22.4235 24.7636 23.1296 24.3048 23.7073 23.7068C24.3049 23.1265 24.767 22.4214 25.0606 21.6418C25.3933 20.7325 25.5746 19.7748 25.5973 18.8068C25.5973 17.5702 25.6673 17.1735 25.6673 14.0002C25.6673 10.8268 25.6673 10.4302 25.5973 9.1935ZM23.4973 18.6668C23.4888 19.4074 23.3547 20.1411 23.1006 20.8368C22.9144 21.3446 22.6152 21.8033 22.2256 22.1785C21.8472 22.5641 21.3894 22.8627 20.884 23.0535C20.1883 23.3075 19.4546 23.4417 18.714 23.4502C17.5473 23.5085 17.1157 23.5202 14.0473 23.5202C10.979 23.5202 10.5473 23.5202 9.38065 23.4502C8.61169 23.4646 7.84601 23.3462 7.11732 23.1002C6.63406 22.8996 6.19723 22.6017 5.83398 22.2252C5.44675 21.8504 5.1513 21.3912 4.97065 20.8835C4.68582 20.1778 4.52783 19.4274 4.50398 18.6668C4.50398 17.5002 4.43398 17.0685 4.43398 14.0002C4.43398 10.9318 4.43398 10.5002 4.50398 9.3335C4.50921 8.57639 4.64743 7.8261 4.91232 7.11683C5.11771 6.62439 5.43296 6.18543 5.83398 5.8335C6.18843 5.43236 6.62649 5.11377 7.11732 4.90016C7.82846 4.64355 8.57798 4.50942 9.33398 4.5035C10.5007 4.5035 10.9323 4.4335 14.0007 4.4335C17.069 4.4335 17.5007 4.4335 18.6673 4.5035C19.4079 4.51199 20.1416 4.64612 20.8373 4.90016C21.3675 5.09692 21.8433 5.41682 22.2256 5.8335C22.608 6.19187 22.9067 6.63002 23.1006 7.11683C23.3599 7.82725 23.4942 8.57724 23.4973 9.3335C23.5556 10.5002 23.5673 10.9318 23.5673 14.0002C23.5673 17.0685 23.5556 17.5002 23.4973 18.6668ZM14.0007 8.01516C12.8174 8.01747 11.6614 8.37044 10.6787 9.02948C9.69606 9.68852 8.93076 10.6241 8.47956 11.7179C8.02836 12.8117 7.9115 14.0147 8.14374 15.1749C8.37599 16.3351 8.94693 17.4005 9.78441 18.2363C10.6219 19.0722 11.6883 19.641 12.849 19.871C14.0096 20.101 15.2124 19.9818 16.3054 19.5285C17.3983 19.0751 18.3323 18.308 18.9895 17.324C19.6466 16.3401 19.9973 15.1834 19.9973 14.0002C19.9989 13.2128 19.8447 12.4329 19.5438 11.7053C19.2428 10.9777 18.801 10.3168 18.2437 9.76055C17.6864 9.20434 17.0246 8.76379 16.2964 8.46425C15.5682 8.16471 14.788 8.01209 14.0007 8.01516ZM14.0007 17.8852C13.2323 17.8852 12.4811 17.6573 11.8423 17.2304C11.2034 16.8035 10.7054 16.1968 10.4114 15.4869C10.1173 14.777 10.0404 13.9959 10.1903 13.2422C10.3402 12.4886 10.7102 11.7964 11.2535 11.2531C11.7969 10.7097 12.4891 10.3397 13.2427 10.1898C13.9963 10.0399 14.7775 10.1168 15.4874 10.4109C16.1973 10.7049 16.804 11.2029 17.2309 11.8418C17.6578 12.4807 17.8857 13.2318 17.8857 14.0002C17.8857 14.5103 17.7852 15.0155 17.5899 15.4869C17.3947 15.9582 17.1085 16.3865 16.7478 16.7473C16.387 17.108 15.9587 17.3942 15.4874 17.5894C15.016 17.7847 14.5108 17.8852 14.0007 17.8852Z" fill="white"/>
</svg>
